<svg width="30.0pt" height="30.0pt" viewBox="0 0 31 30" fill="#675F4B" xmlns="http://www.w3.org/2000/svg">
<path d="M21 9.00001C19.7226 8.99563 18.4568 9.24317 17.2752 9.72847C16.0936 10.2138 15.0192 10.9273 14.1136 11.8283C13.208 12.7292 12.489 13.7999 11.9976 14.979C11.5062 16.1581 11.2522 17.4226 11.25 18.7V28.5C11.25 28.8978 11.408 29.2794 11.6893 29.5607C11.9706 29.842 12.3522 30 12.75 30H16.25C16.6478 30 17.0294 29.842 17.3107 29.5607C17.592 29.2794 17.75 28.8978 17.75 28.5V18.7C17.7497 18.2457 17.8451 17.7964 18.0301 17.3814C18.215 16.9664 18.4853 16.5951 18.8234 16.2916C19.1615 15.9881 19.5598 15.7592 19.9923 15.62C20.4247 15.4807 20.8817 15.4342 21.3333 15.4833C22.1433 15.5854 22.8877 15.9811 23.4254 16.5955C23.963 17.2099 24.2564 18.0003 24.25 18.8167V28.5C24.25 28.8978 24.408 29.2794 24.6893 29.5607C24.9706 29.842 25.3522 30 25.75 30H29.25C29.6478 30 30.0294 29.842 30.3107 29.5607C30.592 29.2794 30.75 28.8978 30.75 28.5V18.7C30.7478 17.4226 30.4938 16.1581 30.0024 14.979C29.511 13.7999 28.792 12.7292 27.8864 11.8283C26.9808 10.9273 25.9064 10.2138 24.7248 9.72847C23.5432 9.24317 22.2774 8.99563 21 9.00001Z" fill="#675F4B"/>
<path d="M6.75 10.5H2.25C1.42157 10.5 0.75 11.1716 0.75 12V28.5C0.75 29.3284 1.42157 30 2.25 30H6.75C7.57843 30 8.25 29.3284 8.25 28.5V12C8.25 11.1716 7.57843 10.5 6.75 10.5Z" fill="#675F4B"/>
<path d="M4.5 7.5C6.57107 7.5 8.25 5.82106 8.25 3.75C8.25 1.67893 6.57107 0 4.5 0C2.42893 0 0.75 1.67893 0.75 3.75C0.75 5.82106 2.42893 7.5 4.5 7.5Z" fill="#675F4B"/>
</svg>
