<svg width="49" height="56" viewBox="0 0 49 56" fill="none" xmlns="http://www.w3.org/2000/svg">
<path d="M24.1531 33.2758C18.6671 33.2758 14.1857 28.8201 14.1857 23.3084C14.1857 17.7969 18.6671 13.3669 24.1531 13.3669C29.639 13.3669 34.1205 17.8226 34.1205 23.3342C34.1205 28.8459 29.639 33.2758 24.1531 33.2758ZM24.1531 17.2303C20.8049 17.2303 18.049 19.9603 18.049 23.3342C18.049 26.7082 20.7792 29.4382 24.1531 29.4382C27.5271 29.4382 30.2572 26.7082 30.2572 23.3342C30.2572 19.9603 27.5013 17.2303 24.1531 17.2303Z" fill="#D9D5CE"/>
<path d="M24.15 55.4C20.3382 55.4 16.5006 53.9577 13.513 51.0988C5.9151 43.7843 -2.48117 32.1171 0.686746 18.2349C3.5456 5.64045 14.5432 0 24.15 0H24.1757C33.7825 0 44.7801 5.64045 47.639 18.2606C50.7811 32.1428 42.3849 43.7843 34.787 51.0988C31.7994 53.9577 27.9618 55.4 24.15 55.4ZM24.15 3.86332C16.6551 3.86332 7.02259 7.85541 4.4728 19.0848C1.69121 31.2156 9.31483 41.6723 16.2173 48.2915C20.673 52.5927 27.6527 52.5927 32.1084 48.2915C38.9851 41.6723 46.6088 31.2156 43.8787 19.0848C41.3031 7.85541 31.6448 3.86332 24.15 3.86332Z" fill="#D9D5CE"/>
</svg>
