<svg width="45" height="60" viewBox="0 0 45 60" fill="none" xmlns="http://www.w3.org/2000/svg">
<path d="M11.4062 59.41C-3.81338 44.1904 -3.79077 19.5368 11.4062 4.33979C12.074 3.67206 13.1086 3.5626 13.898 4.05596L21.4937 8.80358C21.8942 9.05389 22.1941 9.43699 22.3408 9.88592C22.4875 10.3349 22.4718 10.8211 22.2963 11.2596L18.4985 20.7542C18.3363 21.1598 18.0466 21.5017 17.6731 21.7283C17.2996 21.9548 16.8626 22.0538 16.4279 22.0104L9.88771 21.3565C7.4208 28.1839 7.47224 35.7085 9.88771 42.3934L16.4281 41.7393C16.8627 41.6959 17.2997 41.7949 17.6732 42.0215C18.0467 42.248 18.3364 42.5899 18.4987 42.9955L22.2965 52.4902C22.4719 52.9288 22.4876 53.415 22.3409 53.8639C22.1941 54.3128 21.8943 54.6959 21.4938 54.9463L13.8981 59.6939C13.5118 59.9352 13.0552 60.0386 12.6026 59.987C12.1501 59.9355 11.7283 59.7321 11.4062 59.41ZM28.9601 11.1882C30.3467 13.5375 30.3467 16.4626 28.9601 18.8119C28.4972 19.5962 27.424 19.7446 26.7666 19.1143L26.0664 18.4433C25.6081 18.0041 25.5047 17.3157 25.8014 16.7546C26.087 16.2139 26.2363 15.6116 26.2363 15C26.2363 14.3885 26.087 13.7862 25.8014 13.2455C25.5046 12.6844 25.6081 11.996 26.0664 11.5568L26.7666 10.8858C27.424 10.2555 28.4972 10.4039 28.9601 11.1882ZM39.7164 0.502252C46.764 8.89334 46.7584 21.1134 39.7164 29.4977C39.1921 30.122 38.248 30.1711 37.6595 29.607L36.9801 28.9558C36.4457 28.4436 36.3968 27.6048 36.8711 27.0364C42.6938 20.0593 42.689 9.93491 36.8711 2.96354C36.3968 2.39518 36.4456 1.55635 36.9801 1.04413L37.6595 0.392916C38.248 -0.171107 39.1921 -0.122005 39.7164 0.502252ZM34.329 5.76877C38.5537 11.1971 38.5605 18.794 34.329 24.2312C33.8146 24.8922 32.8411 24.9637 32.2365 24.384L31.5547 23.7302C31.0391 23.2358 30.969 22.43 31.4042 21.8633C34.5138 17.8128 34.5136 12.1869 31.4042 8.13666C30.969 7.56994 31.0391 6.76428 31.5547 6.26975L32.2365 5.61596C32.8411 5.03624 33.8146 5.10772 34.329 5.76877Z" fill="#D9D5CE"/>
</svg>
